<svg width="24" height="14" viewBox="0 0 24 14" fill="none" xmlns="http://www.w3.org/2000/svg">
<path d="M11.9997 13.9999C11.737 14.0002 11.4769 13.9486 11.2342 13.848C10.9916 13.7475 10.7712 13.5999 10.5857 13.4139L0.585698 3.41394C0.400009 3.22825 0.252712 3.00781 0.152218 2.76519C0.0517236 2.52258 1.95655e-09 2.26255 0 1.99994C-1.95655e-09 1.73734 0.0517236 1.47731 0.152218 1.23469C0.252712 0.992076 0.400009 0.771631 0.585698 0.585942C0.771387 0.400253 0.991832 0.252956 1.23445 0.152462C1.47706 0.0519678 1.73709 0.000244139 1.9997 0.000244141C2.2623 0.000244143 2.52233 0.0519678 2.76495 0.152462C3.00756 0.252956 3.22801 0.400253 3.4137 0.585942L11.9997 9.17194L20.5857 0.585942C20.7714 0.400253 20.9918 0.252956 21.2344 0.152462C21.4771 0.0519678 21.7371 0.000244145 21.9997 0.000244141C22.2623 0.000244137 22.5223 0.0519678 22.7649 0.152462C23.0076 0.252956 23.228 0.400252 23.4137 0.585941C23.5994 0.77163 23.7467 0.992076 23.8472 1.23469C23.9477 1.47731 23.9994 1.73734 23.9994 1.99994C23.9994 2.26255 23.9477 2.52258 23.8472 2.76519C23.7467 3.00781 23.5994 3.22825 23.4137 3.41394L13.4137 13.4139C13.2282 13.5999 13.0078 13.7475 12.7652 13.848C12.5225 13.9486 12.2624 14.0002 11.9997 13.9999Z" fill="#1DBF73"/>
</svg>
