<svg width="20" height="24" viewBox="0 0 20 24" fill="none" xmlns="http://www.w3.org/2000/svg">
<path d="M9.99841 0C10.3167 0 10.6219 0.126428 10.8469 0.351472C11.072 0.576516 11.1984 0.88174 11.1984 1.2V3.6384L11.1972 3.6636L11.1948 3.6996C12.8732 3.9829 14.3969 4.85145 15.4959 6.1512C16.5949 7.45095 17.198 9.09791 17.1984 10.8C17.1984 14.5116 17.9484 15.9744 19.1172 18.252L19.158 18.3336C19.362 18.7296 19.074 19.2 18.6276 19.2H1.36921C1.26723 19.2001 1.16694 19.174 1.07795 19.1242C0.988955 19.0744 0.914254 19.0025 0.861008 18.9156C0.807762 18.8286 0.777756 18.7294 0.77387 18.6275C0.769984 18.5256 0.792347 18.4244 0.838814 18.3336L0.879614 18.252C2.04841 15.9744 2.79841 14.5116 2.79841 10.8C2.79849 9.0977 3.40152 7.45046 4.50052 6.15046C5.59952 4.85046 7.12346 3.98174 8.80201 3.6984L8.79961 3.6504C8.79879 3.63361 8.79839 3.61681 8.79841 3.6V1.2C8.79841 0.88174 8.92484 0.576516 9.14989 0.351472C9.37493 0.126428 9.68015 0 9.99841 0V0ZM12.3984 21.6C12.3984 22.2365 12.1456 22.847 11.6955 23.2971C11.2454 23.7471 10.6349 24 9.99841 24C9.36189 24 8.75144 23.7471 8.30136 23.2971C7.85127 22.847 7.59841 22.2365 7.59841 21.6H12.3984Z" fill="#B0AAD0"/>
</svg>
