<svg width="22" height="22" viewBox="0 0 22 22" fill="none" xmlns="http://www.w3.org/2000/svg">
<path d="M4.99962 13.4L0.650816 9.8C-0.169984 9.1436 0.190016 7.8236 1.23162 7.6748L7.39962 7.4L10.0336 0.796403C10.1233 0.616999 10.2612 0.466116 10.4318 0.360664C10.6024 0.255212 10.799 0.199356 10.9996 0.199356C11.2002 0.199356 11.3968 0.255212 11.5674 0.360664C11.738 0.466116 11.8759 0.616999 11.9656 0.796403L14.5996 7.4L20.7676 7.6748C21.8092 7.8236 22.1692 9.1436 21.3484 9.8L16.9996 13.4L18.1864 20.4284C18.2174 20.6452 18.1885 20.8663 18.1028 21.0678C18.0171 21.2693 17.8779 21.4435 17.7003 21.5716C17.5226 21.6997 17.3134 21.7767 17.0951 21.7943C16.8768 21.8119 16.6579 21.7695 16.462 21.6716L10.9996 18.2L5.53722 21.6704C5.34134 21.7683 5.12241 21.8107 4.90415 21.7931C4.68588 21.7755 4.4766 21.6985 4.29897 21.5704C4.12134 21.4423 3.98214 21.2681 3.89645 21.0666C3.81075 20.8651 3.78183 20.644 3.81282 20.4272L4.99962 13.4Z" fill="#B0AAD0"/>
</svg>
