<svg width="25" height="23" viewBox="0 0 25 23" fill="none" xmlns="http://www.w3.org/2000/svg">
<path d="M10.9565 1.13397C11.6902 -0.352523 13.8098 -0.35252 14.5435 1.13397L16.6931 5.48949C16.9844 6.07978 17.5475 6.48891 18.1989 6.58357L23.0055 7.28201C24.646 7.52038 25.301 9.53633 24.1139 10.6934L20.6359 14.0837C20.1645 14.5432 19.9494 15.2052 20.0607 15.854L20.8817 20.6411C21.162 22.2749 19.4471 23.5209 17.9798 22.7495L13.6807 20.4893C13.098 20.183 12.402 20.183 11.8193 20.4893L7.52017 22.7495C6.05291 23.5209 4.33805 22.2749 4.61827 20.6411L5.43933 15.854C5.55061 15.2052 5.33551 14.5432 4.86414 14.0837L1.38605 10.6934C0.199019 9.53633 0.854037 7.52038 2.49448 7.28201L7.30107 6.58357C7.95249 6.48891 8.51563 6.07978 8.80695 5.48949L10.9565 1.13397Z" fill="#FBA457"/>
</svg>
